#!OML:ASF H:\ManfredETheater\Project 1\Capture day 1\Session 1\subject.ASF
:FULLY-SPECIFIED
:DEGREES
1321
root 3.25614 13.7788 -5.24075 1.79366 7.09293 -0.122438
lowerback 27.4014 -0.00550288 -0.313888
upperback 3.79907 0.0936491 1.36185
thorax -10.9652 0.098136 1.68497
lowerneck -22.7407 -4.67881 -5.86952
upperneck -12.195 -4.48207 8.29818
head 0.124105 -1.84053 3.23952
rclavicle -6.16232e-015 2.38542e-015
rhumerus -33.2127 -20.67 -35.2674
rradius 42.0092
rwrist -4.20763
rhand -23.7133 -11.6554
rfingers 7.12502
rthumb 2.75423 -41.6174
lclavicle -6.16232e-015 2.38542e-015
lhumerus -28.9778 3.38292 47.9903
lradius 55.7896
lwrist -7.36908
lhand -20.3455 10.8457
lfingers 7.12502
lthumb 6.00624 40.7406
rfemur -50.7836 -32.4592 15.2923
rtibia 102.82
rfoot -30.5991 17.0483
rtoes -21.6243
lfemur -53.4653 16.176 -12.7533
ltibia 99.4048
lfoot -33.4885 -25.5501
ltoes -20.8995
1322
root 3.25223 13.9447 -5.21833 1.97072 7.08342 -0.113504
lowerback 27.0043 -0.0110683 -0.346683
upperback 3.66577 0.0751306 1.35791
thorax -10.9112 0.0906796 1.7037
lowerneck -22.9031 -4.68179 -5.86333
upperneck -12.0228 -4.48735 8.28744
head 0.197013 -1.83831 3.23087
rclavicle 1.3418e-014 -8.34896e-015
rhumerus -33.5578 -21.1153 -34.0903
rradius 41.3965
rwrist -4.14939
rhand -23.7645 -11.779
rfingers 7.12502
rthumb 2.70478 -41.7416
lclavicle 1.3418e-014 -8.34896e-015
lhumerus -28.7879 4.03334 46.7432
lradius 54.2955
lwrist -7.52619
lhand -20.0625 11.1571
lfingers 7.12502
lthumb 6.27947 41.044
rfemur -49.8878 -32.0088 15.5335
rtibia 101.022
rfoot -30.5397 16.424
rtoes -21.4282
lfemur -52.5312 15.7638 -12.9158
ltibia 97.6861
lfoot -33.33 -24.9216
ltoes -20.8084
1323
root 3.24863 14.1094 -5.19599 2.15557 7.07441 -0.102851
lowerback 26.6032 -0.0197467 -0.381088
upperback 3.52998 0.0522779 1.35318
thorax -10.8565 0.0812646 1.72383
lowerneck -23.0583 -4.68274 -5.85457
upperneck -11.8466 -4.49132 8.2756
head 0.270039 -1.83573 3.22161
rclavicle -5.86415e-015 -1.03368e-014
rhumerus -33.8902 -21.5197 -32.9335
rradius 40.8016
rwrist -4.07887
rhand -23.8216 -11.9048
rfingers 7.12502
rthumb 2.64966 -41.8681
lclavicle -5.86415e-015 -1.03368e-014
lhumerus -28.6147 4.68216 45.5103
lradius 52.8243
lwrist -7.70602
lhand -19.8137 11.4531
lfingers 7.12502
lthumb 6.51968 41.3327
rfemur -49.0125 -31.589 15.7805
rtibia 99.2142
rfoot -30.4408 15.7882
rtoes -21.1882
lfemur -51.6101 15.364 -13.086
ltibia 95.955
lfoot -33.1475 -24.2838
ltoes -20.6996
1324
root 3.24532 14.2726 -5.17385 2.3487 7.06792 -0.0886597
lowerback 26.199 -0.0320312 -0.418263
upperback 3.39152 0.0240907 1.34715
thorax -10.802 0.0694667 1.74575
lowerneck -23.2042 -4.68198 -5.8435
upperneck -11.6697 -4.49429 8.26335
head 0.34198 -1.833 3.21204
rclavicle 2.73329e-014 7.95139e-016
rhumerus -34.2105 -21.8809 -31.8002
rradius 40.2301
rwrist -3.99538
rhand -23.8795 -12.0372
rfingers 7.12502
rthumb 2.59377 -42.0012
lclavicle 2.73329e-014 7.95139e-016
lhumerus -28.4598 5.33235 44.2906
lradius 51.3826
lwrist -7.9109
lhand -19.5864 11.733
lfingers 7.12502
lthumb 6.73914 41.6058
rfemur -48.1585 -31.201 16.0313
rtibia 97.3988
rfoot -30.3013 15.143
rtoes -20.8958
lfemur -50.703 14.9737 -13.2648
ltibia 94.2134
lfoot -32.9423 -23.6348
ltoes -20.5765
1325
root 3.24229 14.4342 -5.15197 2.5496 7.06441 -0.0701441
lowerback 25.7928 -0.0478945 -0.459014
upperback 3.25054 -0.0096164 1.33965
thorax -10.7478 0.0552246 1.76975
lowerneck -23.3382 -4.67976 -5.83057
upperneck -11.4946 -4.49645 8.25138
head 0.411773 -1.83026 3.20249
rclavicle -1.05356e-014 -7.55382e-015
rhumerus -34.5185 -22.2002 -30.6923
rradius 39.6853
rwrist -3.89866
rhand -23.9307 -12.1764
rfingers 7.12502
rthumb 2.54428 -42.141
lclavicle -1.05356e-014 -7.55382e-015
lhumerus -28.3253 5.98509 43.0828
lradius 49.9781
lwrist -8.13611
lhand -19.3664 12.0014
lfingers 7.12502
lthumb 6.95146 41.8673
rfemur -47.3251 -30.8442 16.2845
rtibia 95.578
rfoot -30.1226 14.4885
rtoes -20.55
lfemur -49.809 14.5919 -13.4519
ltibia 92.4626
lfoot -32.7147 -22.9729
ltoes -20.4384
1326
root 3.23954 14.594 -5.1303 2.75687 7.06228 -0.0472405
lowerback 25.3855 -0.0665773 -0.503942
upperback 3.10762 -0.0479948 1.3307
thorax -10.6938 0.0389469 1.79584
lowerneck -23.4588 -4.67627 -5.81654
upperneck -11.3231 -4.49789 8.24029
head 0.478759 -1.82754 3.1933
rclavicle 9.93923e-015 -7.95139e-015
rhumerus -34.814 -22.4823 -29.6097
rradius 39.1682
rwrist -3.79014
rhand -23.9677 -12.3185
rfingers 7.12502
rthumb 2.50856 -42.2835
lclavicle 9.93923e-015 -7.95139e-015
lhumerus -28.2134 6.63923 41.8866
lradius 48.6196
lwrist -8.37051
lhand -19.1463 12.2617
lfingers 7.12502
lthumb 7.16391 42.1205
rfemur -46.5094 -30.5156 16.5385
rtibia 93.7528
rfoot -29.9084 13.8239
rtoes -20.1559
lfemur -48.9256 14.2207 -13.6467
ltibia 90.7034
lfoot -32.4638 -22.2955
ltoes -20.2803
